# xmcd CD database file
#
# Track frame offsets:
#	150
#	4158
#	23009
#	38417
#	60399
#	78668
#	101947
#	119498
#	144543
#	165693
#	183347
#
# Disc length: 2535 seconds
#
# Revision: 0
# Processed by: cddbd v1.5.1PL2 Copyright (c) Steve Scherf et al.
# Submitted via: CDex 1.51
#
DISCID=8909e50b
DTITLE=MASAKI project - Universal Syndicate
DYEAR=2006
DGENRE=Hard Rock
TTITLE0=Natural Born Groove#4
TTITLE1=Chaos Of Beauty
TTITLE2=Native Scape
TTITLE3=Down
TTITLE4=Buzz Bullets
TTITLE5=Glitter
TTITLE6=Technopolis
TTITLE7=Sin Of Envy
TTITLE8=Swallowed
TTITLE9=Achievement Need
TTITLE10=Winter Rose
EXTD=YEAR: 2006
EXTT0=
EXTT1=
EXTT2=
EXTT3=
EXTT4=
EXTT5=
EXTT6=
EXTT7=
EXTT8=
EXTT9=
EXTT10=
PLAYORDER=
